<?xml version="1.0" standalone="no"?>
<!DOCTYPE svg PUBLIC "-//W3C//DTD SVG 20010904//EN"
 "http://www.w3.org/TR/2001/REC-SVG-20010904/DTD/svg10.dtd">
<svg version="1.0" xmlns="http://www.w3.org/2000/svg"
 width="1782.000000pt" height="1260.000000pt" viewBox="0 0 1782.000000 1260.000000"
 preserveAspectRatio="xMidYMid meet">

<g transform="translate(0.000000,1260.000000) scale(0.100000,-0.100000)"
fill="#000000" stroke="none">
<path d="M6150 9559 c-861 -48 -1860 -380 -2604 -866 -215 -141 -362 -258
-522 -418 -165 -165 -227 -242 -329 -413 -83 -138 -139 -267 -165 -376 -24
-99 -26 -247 -5 -331 23 -90 86 -210 160 -303 65 -82 67 -83 86 -66 11 10 18
25 15 34 -2 8 -16 46 -31 83 -69 185 -49 365 67 588 73 142 162 255 337 429
240 240 483 418 871 637 772 436 1727 702 2526 703 378 0 674 -46 935 -145
114 -44 169 -73 256 -134 126 -89 200 -207 247 -393 93 -366 35 -790 -174
-1263 l-57 -130 -199 -7 c-1326 -44 -2923 -480 -4003 -1093 -397 -224 -679
-431 -939 -687 -237 -233 -398 -467 -487 -708 -24 -63 -29 -95 -33 -200 -6
-186 23 -281 140 -452 126 -184 274 -307 438 -363 222 -76 601 -77 960 -4 453
92 1103 340 1613 615 940 506 1732 1167 2287 1909 209 280 375 538 453 708
l22 48 140 -4 c117 -4 330 -31 344 -43 2 -2 -35 -44 -82 -94 -166 -176 -331
-450 -387 -640 -40 -136 -27 -265 41 -405 72 -146 185 -206 294 -156 61 27
185 132 279 234 94 103 209 241 249 302 31 46 31 47 12 -70 -18 -106 -19 -258
-4 -340 26 -144 154 -297 283 -341 44 -15 47 -15 94 11 63 34 231 188 374 343
112 123 113 123 115 90 13 -179 109 -329 283 -442 136 -88 251 -121 402 -114
82 3 103 8 169 39 41 20 99 53 129 74 124 87 317 268 473 443 55 61 103 112
106 112 3 0 4 -27 3 -59 -4 -73 18 -163 63 -260 92 -194 203 -269 313 -212
111 57 348 310 566 604 44 58 82 105 84 103 2 -2 -30 -78 -71 -168 -407 -889
-694 -1325 -957 -1452 -52 -25 -80 -31 -145 -34 -74 -3 -85 -1 -139 27 -65 35
-94 39 -103 14 -16 -42 156 -152 293 -188 167 -43 352 -39 426 10 199 132 462
591 864 1509 251 571 397 851 512 978 19 21 32 44 29 52 -16 41 -225 166 -277
166 -41 0 -83 -47 -159 -177 -187 -316 -228 -383 -308 -495 -258 -365 -634
-765 -744 -793 -71 -18 -78 93 -15 230 19 42 66 129 104 193 88 148 378 584
511 767 55 77 101 148 101 158 0 55 -191 177 -277 177 -40 0 -45 -3 -98 -67
-75 -91 -187 -261 -275 -415 -71 -124 -74 -129 -288 -340 -438 -431 -773 -687
-1002 -764 -75 -25 -203 -25 -248 -1 -108 59 -102 200 18 446 217 444 574 911
776 1014 81 41 170 26 194 -34 27 -64 -25 -199 -113 -295 l-51 -57 38 -33 c39
-34 130 -74 166 -74 35 0 89 60 132 146 75 153 53 247 -92 393 -124 124 -260
190 -362 177 -221 -30 -537 -309 -793 -701 -125 -191 -609 -680 -824 -834 -83
-59 -124 -30 -103 73 15 75 90 265 153 387 55 108 274 443 413 632 47 65 86
122 86 127 0 34 -208 190 -254 190 -53 0 -122 -65 -209 -194 l-46 -69 -6 39
c-19 111 -60 177 -135 218 -90 49 -189 46 -333 -10 -58 -23 -59 -23 -96 -5
-106 54 -381 121 -496 121 -24 0 -46 4 -49 9 -3 5 10 58 30 117 136 414 151
806 45 1132 -34 102 -124 298 -173 377 -216 341 -560 573 -1022 685 -209 52
-544 75 -836 59z m1480 -2618 c0 -34 -356 -524 -523 -719 -262 -307 -644 -663
-1027 -957 -799 -615 -1854 -1123 -2665 -1284 -200 -40 -312 -51 -512 -51
-194 0 -299 14 -445 61 -135 43 -158 64 -158 148 0 108 59 320 125 451 141
278 520 661 955 965 894 624 2102 1117 3179 1296 277 46 493 70 841 93 108 7
230 5 230 -3z m1465 -65 c34 -25 16 -124 -46 -248 -89 -177 -342 -484 -584
-707 -193 -179 -290 -186 -244 -16 28 101 191 379 325 552 80 103 284 315 331
344 18 11 40 19 50 17 10 -2 18 2 18 9 0 18 17 31 60 47 51 19 67 19 90 2z"/>
<path d="M13554 7781 c-18 -11 -49 -41 -69 -68 -34 -45 -37 -52 -32 -100 3
-28 15 -73 26 -99 26 -58 26 -99 3 -162 -25 -66 -73 -134 -145 -204 l-60 -59
26 -26 25 -26 46 27 c125 73 277 220 366 353 119 177 119 301 0 361 -57 29
-142 30 -186 3z"/>
<path d="M15395 7285 c-81 -25 -248 -101 -565 -255 -353 -172 -412 -198 -539
-241 -95 -32 -152 -37 -171 -14 -14 17 -15 16 48 64 49 38 102 123 102 164 0
33 -12 58 -52 108 -36 45 -110 99 -135 99 -43 -1 -134 -159 -154 -266 -21
-111 18 -217 103 -284 65 -52 112 -64 223 -57 171 11 374 76 765 242 252 107
330 137 330 126 0 -11 -111 -115 -200 -187 -147 -119 -368 -279 -539 -392
-390 -257 -545 -374 -668 -506 -129 -138 -163 -249 -107 -359 44 -88 94 -148
141 -169 54 -24 75 -20 209 38 178 77 346 102 579 85 290 -21 534 -97 693
-215 61 -45 65 -47 88 -31 29 19 29 16 3 68 -35 70 -105 162 -160 211 -144
129 -423 222 -744 247 -137 11 -299 2 -389 -22 -21 -6 -40 -8 -42 -6 -3 2 118
87 268 188 656 440 994 686 1151 838 126 122 137 150 94 232 -67 127 -125 217
-167 261 -41 42 -51 48 -86 47 -21 -1 -57 -7 -79 -14z"/>
<path d="M6947 3440 c-139 -44 -185 -239 -80 -344 39 -40 83 -56 153 -56 70 0
124 23 163 69 81 97 51 258 -57 315 -44 22 -135 31 -179 16z m140 -80 c46 -28
66 -72 60 -134 -4 -41 -10 -55 -41 -83 -29 -27 -44 -33 -81 -33 -87 0 -135 47
-135 132 0 55 17 87 59 115 42 28 95 30 138 3z"/>
<path d="M8621 3436 c-27 -15 -50 -52 -51 -79 0 -11 7 -34 16 -53 l16 -33 -41
-39 c-34 -32 -41 -46 -41 -76 0 -50 23 -91 60 -106 41 -17 121 -8 157 18 l30
21 23 -24 c17 -18 34 -25 62 -25 21 0 38 4 38 8 0 5 -15 26 -34 48 l-34 39 26
28 26 27 -22 22 -22 22 -25 -24 -26 -24 -31 31 -31 32 31 36 c44 50 45 103 1
139 -34 29 -88 34 -128 12z m97 -78 c4 -32 -33 -64 -54 -47 -38 31 -21 82 25
77 20 -2 27 -9 29 -30z m-30 -178 c17 -21 32 -41 32 -44 0 -14 -62 -36 -85
-30 -24 6 -45 30 -45 52 0 15 40 62 53 62 7 0 27 -18 45 -40z"/>
<path d="M10018 3434 c-33 -17 -58 -62 -58 -102 0 -43 35 -81 107 -113 56 -25
63 -31 63 -57 0 -15 -5 -33 -12 -40 -19 -19 -82 -14 -106 8 -12 11 -25 20 -30
20 -5 0 -17 -9 -27 -20 -17 -19 -17 -21 1 -41 30 -33 69 -49 119 -49 86 0 135
47 135 129 0 52 -30 87 -100 115 -60 24 -81 47 -64 73 16 26 48 33 79 17 36
-19 40 -18 59 11 16 24 16 25 -24 45 -46 23 -104 25 -142 4z"/>
<path d="M10430 3423 c-145 -74 -144 -290 2 -364 33 -17 55 -20 114 -17 63 3
77 7 111 34 56 45 83 98 83 164 0 117 -75 198 -191 207 -56 4 -71 1 -119 -24z
m193 -81 c24 -25 31 -41 35 -85 8 -95 -39 -147 -134 -147 -39 0 -51 5 -79 33
-42 42 -54 95 -34 151 31 89 145 115 212 48z"/>
<path d="M6354 3427 c-2 -7 -3 -96 -2 -197 l3 -185 38 -3 37 -3 0 90 0 91 85
0 84 0 3 -87 3 -88 35 0 35 0 3 198 2 197 -40 0 -40 0 0 -75 0 -75 -85 0 -85
0 0 75 0 75 -35 0 c-20 0 -38 -6 -41 -13z"/>
<path d="M7300 3411 c0 -28 3 -30 43 -33 l42 -3 5 -165 5 -165 35 0 35 0 5
165 5 165 25 1 c59 3 60 3 60 34 l0 30 -130 0 -130 0 0 -29z"/>
<path d="M7670 3240 l0 -201 108 3 107 3 3 32 3 32 -73 3 -73 3 0 50 0 50 68
3 68 3 -3 32 -3 32 -68 3 -68 3 3 42 3 42 73 3 c73 3 73 3 70 30 l-3 27 -107
3 -108 3 0 -201z"/>
<path d="M8022 3243 l3 -198 95 0 95 0 3 33 3 32 -60 0 -61 0 0 165 0 165 -40
0 -40 0 2 -197z"/>
<path d="M9212 3243 l3 -198 35 0 35 0 5 80 5 79 45 -68 c24 -38 50 -75 58
-82 14 -15 92 -20 92 -6 0 4 -25 41 -56 82 -50 68 -54 76 -38 87 10 7 20 13
24 13 14 0 40 62 40 97 0 79 -50 113 -170 113 l-80 0 2 -197z m146 121 c46
-32 15 -104 -45 -104 -21 0 -23 4 -23 60 0 56 2 60 23 60 12 0 33 -7 45 -16z"/>
<path d="M9612 3243 l3 -198 105 0 105 0 3 33 3 32 -70 0 -71 0 0 55 0 55 66
0 65 0 -3 33 c-3 32 -3 32 -65 35 l-63 3 0 45 0 46 38 -3 c20 -1 52 -1 70 0
29 1 32 4 32 31 l0 30 -110 0 -110 0 2 -197z"/>
<path d="M10878 3433 c-9 -18 -8 -369 0 -381 5 -8 22 -12 38 -10 29 3 29 3 32
81 2 42 6 77 10 77 4 0 31 -36 60 -80 51 -78 53 -80 92 -80 22 0 40 5 40 11 0
5 -24 43 -54 83 l-54 74 24 11 c29 13 64 67 64 99 0 45 -28 92 -64 107 -37 16
-182 21 -188 8z m152 -73 c11 -11 20 -29 20 -40 0 -29 -36 -60 -70 -60 l-30 0
0 60 0 60 30 0 c17 0 39 -9 50 -20z"/>
<path d="M11230 3411 c0 -28 3 -30 43 -33 l42 -3 5 -165 5 -165 37 -3 38 -3 2
168 3 168 40 0 c38 0 40 2 43 33 l3 32 -130 0 -131 0 0 -29z"/>
</g>
</svg>
